<svg width="337" height="315" viewBox="0 0 337 315" fill="none" xmlns="http://www.w3.org/2000/svg">
<path d="M231.414 232C290.75 225.884 297.042 214.407 324.914 160.5H231.414M231.414 232V160.5M231.414 232V236.5H220.164V232M127.414 232H109.914C100.944 193.811 89.7278 186.127 48.0786 182L20.4143 160.5L220.164 160.5M127.414 232C133.143 280.446 118.233 280.952 76.4143 308H149.914C163.276 301.03 170.929 300.808 184.914 308H256.414C208.452 274.948 195.794 273.157 204.414 232M127.414 232H204.414M204.414 232L220.164 232M231.414 160.5V156H220.164V160.5M220.164 232V160.5" stroke="white" stroke-width="14"/>
<path d="M98.6213 113.792L99.0678 34.6927H90.1372V135.339C102.41 132.17 114.725 130.154 127.127 130.067C138.579 129.995 150.03 131.594 161.51 135.483C154.38 129.707 146.429 125.458 137.945 122.693C127.257 119.208 115.705 118.055 103.864 119.064C101.185 119.28 98.8518 117.292 98.6213 114.628C98.5925 114.339 98.5925 114.066 98.6213 113.792ZM229.672 30.5591C229.643 30.3286 229.614 30.0838 229.614 29.8245C229.614 29.5797 229.628 29.3349 229.672 29.09V13.0742C218.436 12.0084 206.855 13.2471 196.743 17.0782C187.294 20.6644 179.141 26.5551 173.841 34.9951V126.222C182.08 120.72 190.506 116.197 199.163 113.115C209.03 109.601 219.171 107.93 229.672 108.766V30.5591ZM239.395 24.9708H252.56C255.239 24.9708 257.414 27.1456 257.414 29.8245V141.676C257.414 144.355 255.239 146.529 252.56 146.529C252.013 146.529 251.48 146.443 250.99 146.27C237.45 142.396 223.996 139.818 210.672 139.731C197.68 139.645 184.701 141.935 171.665 147.682C170.859 148.215 169.894 148.503 168.9 148.488C167.92 148.503 166.955 148.215 166.134 147.682C153.113 141.921 140.12 139.645 127.127 139.731C113.803 139.818 100.364 142.396 86.8098 146.27C86.32 146.443 85.7871 146.529 85.2397 146.529C82.5893 146.544 80.4143 144.369 80.4143 141.69V29.8245C80.4143 27.1456 82.5893 24.9708 85.2685 24.9708H99.1111L99.1975 8.75342C99.2119 6.42018 100.854 4.49022 103.058 4.02934C115.834 1.36484 131.362 2.02737 144.974 7.24114C154.38 10.8418 162.922 16.5885 169.159 24.8844C175.454 17.1502 183.866 11.5907 193.33 8.00448C206.265 3.09316 221.187 1.91214 235.232 3.97173C237.652 4.31739 239.38 6.40578 239.38 8.76782V24.9708H239.395ZM178.551 134.748C189.282 131.378 199.999 129.995 210.716 130.053C223.118 130.125 235.433 132.156 247.706 135.324V34.6927H239.395V114.224C239.395 116.903 237.219 119.078 234.54 119.078C234.151 119.078 233.777 119.035 233.417 118.948C222.786 117.278 212.487 118.66 202.433 122.247C194.338 125.141 186.387 129.462 178.551 134.748ZM164.132 125.286V34.8511C159.047 25.8782 150.822 19.8723 141.532 16.3148C131.002 12.2821 119.176 11.3747 108.863 12.8438L108.315 109.068C119.565 108.665 130.57 110.091 140.927 113.475C149.166 116.154 156.973 120.086 164.132 125.286Z" fill="white" stroke="white" stroke-width="5"/>
</svg>
